<?xml version="1.0" encoding="utf-8"?>
<svg viewBox="263.5159912109375 207.39100646972656 600 600" width="600" height="600" xmlns="http://www.w3.org/2000/svg">
  <g transform="matrix(6, 0, 0, 6.00018, -767.703979, -823.919922)">
    <g>
      <g>
        <path d="M 186.156 221.879 L 207.585 243.308 L 221.87 229.022 L 229.014 236.164 L 214.728 250.45 L 229.014 264.735 L 221.87 271.877 L 207.585 257.593 L 207.585 257.593 L 200.441 250.45 L 200.443 250.45 L 171.87 221.879 L 221.87 171.88 L 229.014 179.022 L 186.156 221.879 Z M 257.585 236.164 L 236.156 257.591 L 229.014 250.45 L 243.299 236.164 L 221.87 214.737 L 207.453 229.152 L 200.311 222.01 L 214.728 207.593 L 214.727 207.593 L 236.156 186.164 L 243.299 193.307 L 264.727 214.737 L 271.87 221.879 L 264.727 229.022 L 264.727 229.022 L 257.585 236.164 Z M 250.441 229.022 L 257.585 221.879 L 236.156 200.451 L 229.014 207.593 L 250.441 229.022 Z" id="" style="fill: rgb(169, 169, 169);"/>
      </g>
    </g>
  </g>
</svg>